<svg id="Layer_1" data-name="Layer 1" xmlns="http://www.w3.org/2000/svg" viewBox="0 0 2494.3 628.74"><defs><style>.cls-1{fill:#0f0f31;}.cls-2{fill:#fcfcfc;}.cls-3{fill:#ccb8c2;}.cls-4{fill:#d7e6e5;}.cls-5{fill:#cde1e1;}.cls-6{fill:#c3afba;}.cls-7{fill:#c8dfdf;}.cls-8{fill:#b1a1ae;}.cls-9{fill:#afacb8;}.cls-10{fill:#323451;}.cls-11{fill:#c2c7ce;}.cls-12{fill:#898d9d;}.cls-13{fill:#d3bfc8;}.cls-14{fill:#139b99;}.cls-15{fill:#149b99;}.cls-16{fill:#73647b;}.cls-17{fill:#7dc6c5;}.cls-18{fill:#a394a3;}.cls-19{fill:#fff;}</style></defs><path class="cls-1" d="M214.2,44.2c3.6,1.1,5.2,4,6.5,7.2,5,11.2,9.9,22.5,14.9,33.7,10.3,22.9,20.5,45.7,30.8,68.6a37.58,37.58,0,0,1,3.7,14.8c.4,10.7,1,21.4,1.5,32.1.3,6.4.6,12.8.8,19.2a19.27,19.27,0,0,1-.1,2.4c0,.2-.4.5-.6.5a1.14,1.14,0,0,1-.8-.3,14.72,14.72,0,0,1-1-2.2q-11.1-24.6-22.1-49.4-21.3-47.4-42.5-94.9a34.18,34.18,0,0,0-2.1-4.3,6.33,6.33,0,0,0-5.4-3.4c-1,0-1.9-.1-2.9-.1q-64.5,0-129,.1c-7,0-6.5-.8-6.5,6.4V410.8c0,1.7.1,3.4.2,5.1,1.6-.3,2.1-1.4,2.7-2.2,14.7-18,32.9-31.6,53.1-42.7,1.4-.8,2.9-1.4,4.3-2.1,2.9-1.5,3.4-2.7,2.1-5.8-3.1-6.9-5-14.1-6.9-21.4a165.37,165.37,0,0,1-5.9-46.9c1.2-49.4,19-91.8,54.6-126.3a120.62,120.62,0,0,1,19.9-15.7q1.5-.3,1.2,1.2c-7,7-13.8,14.3-20.1,21.9-.8,1-1.5,2-2.6,3.3,1.7.5,3,1,4.3,1.3l70.4,18.6c3.7,1,7.4,1.7,11.3.7,3.7-.9,6,.4,7.6,3.4a6.77,6.77,0,0,1-1.7,8.6c-2.2,1.8-6.9,2.3-8.8,0-2.6-3.2-6.2-4.3-10-5.3-23.9-6.3-47.9-12.7-71.8-19-6.1-1.6-6.2-1.6-9.4,4.1-1.4,2.5-2.9,5-4.3,7.5a6.63,6.63,0,0,0-1.3,3.1,5.42,5.42,0,0,0,2.9,1.5c30.7,8.1,61.5,16.1,92.2,24.2a24.78,24.78,0,0,0,11.8.8c4.5-.9,7.9,2.3,7.9,6.7a6.16,6.16,0,0,1-3.4,6,6.67,6.67,0,0,1-7.3-.2,10.63,10.63,0,0,1-1.1-.9c-2.3-2.4-5.3-3.5-8.4-4.3-11.1-2.9-22.2-5.9-33.3-8.9-20.1-5.5-40.2-10.7-60.2-16.2-5.7-1.6-5.6-.2-7.1,3.5s-2.9,7.5-4.2,11.2c-.6,1.8-.4,2.2,1.4,2.7,7.1,1.9,14.2,3.8,21.3,5.6Q194,242.6,227,251.4a26.38,26.38,0,0,0,12.8.7c2.9-.6,5,.7,6.5,3a6.62,6.62,0,0,1-.9,8.8,7,7,0,0,1-8.8.9,10.63,10.63,0,0,1-1.1-.9c-2.5-2.7-5.8-3.8-9.3-4.7-10.4-2.7-20.7-5.4-31-8.2l-57.4-15.3a11.63,11.63,0,0,0-1.8-.4c-1.3.9-1.4,2.3-1.7,3.5-.8,4.2-1.6,8.5-2.4,12.7-.4,2,0,2.6,1.9,3.2,4,1.1,8,2.2,12,3.2,17.9,4.7,35.8,9.5,53.7,14.2a50.3,50.3,0,0,0,6.5,1.4,15.78,15.78,0,0,0,5.7-.5,6.39,6.39,0,0,1,7.6,3.5,6.8,6.8,0,0,1-1.9,8.6c-3,2.4-6.4,2.5-9-.3a15.52,15.52,0,0,0-8.2-4.5c-22.1-5.8-44.1-11.7-66.2-17.6-3.6-1-3.9-.8-4,2.8v13.4a3.21,3.21,0,0,0,2.6,3.5c1.4.4,2.8.8,4.1,1.2l44,11.7a18.3,18.3,0,0,0,9,.5,13.58,13.58,0,0,1,2.9-.3c3.7-.1,6.2,2,6.7,5.5.5,3.7-1.4,7-4.7,7.9-2.3.6-4.5.5-6.2-1.3a19,19,0,0,0-9.1-5c-15.4-4.1-30.8-8.1-46.3-12.1a5.9,5.9,0,0,0-1.4-.2,2,2,0,0,0-.6,1.8,129.34,129.34,0,0,0,2.9,16.5,3.45,3.45,0,0,0,2.5,2.7c1.4.4,2.8.8,4.1,1.2,4.3,1.2,8.6,2.3,13,3.5a9.8,9.8,0,0,0,6.1.2,10.36,10.36,0,0,1,4.3-.4c5.5.2,7.3,6.2,5.3,9.9s-7.2,5.2-10.2,2.2c-3.2-3.1-7.2-4.7-11.4-5.8-3.4-.8-6.8-1.6-10-2.4-.9.5-.6,1.2-.5,1.8a161.37,161.37,0,0,0,12.2,29.1,8.64,8.64,0,0,0,1,1.6,1.58,1.58,0,0,0,2.1.6c.4-.2.9-.3,1.3-.5,10.7-5,21.4-10,32-15.2,41.8-20.2,72.6-51.6,93.5-92.9,1.5-2.9,2.9-5.7,4.4-8.5a4.35,4.35,0,0,1,.6-.7c1.1.2.8,1.2.8,1.9-.1,5.5-1.4,10.8-2.6,16.1-9,39.3-30.3,70.7-61.8,95.4A209.55,209.55,0,0,1,187,369.7c-15.6,8.1-31.3,16-46.9,24-8.7,4.4-17.3,9.1-25.5,14.3A145.12,145.12,0,0,0,75,444.5a129.87,129.87,0,0,0-22.6,52.9A138.16,138.16,0,0,0,50.8,538a164.2,164.2,0,0,0,6,29.5,3.62,3.62,0,0,1,.3,2.3c-.1.3-.3.4-.7.3a5.9,5.9,0,0,1-2.2-2.5,115.15,115.15,0,0,1-18-39.5c-1.2-5.1-2-10.3-3-15.5-.8-1.4-.1-3-.7-4.5-.4-2.7.3-5.5-1.1-8v-6.7c1.3-3.2.9-6.5,1-9.9,3-142.4.5-284.8,1.3-427.1a66,66,0,0,1,.2-7.7c.2-2.2.8-4.1,3.2-4.8,44.1-.1,88.2,0,132.3,0h41.9A5.2,5.2,0,0,1,214.2,44.2Z" transform="translate(-31.4 -43.3)"/><path class="cls-2" d="M37.6,44.2a2.92,2.92,0,0,0-1.9,2.5c0,1.6-.1,3.2-.1,4.8V445.9c0,12.9-.1,25.9-1.9,38.7-1.2,1,.9,3.5-1.8,3.9V43.3h5.8q.45.3.3.6A.54.54,0,0,1,37.6,44.2Z" transform="translate(-31.4 -43.3)"/><path class="cls-3" d="M37.6,44.2v-.9H170q.45.3.3.6t-.3.3c-1.3,0-2.5.2-3.8.2H39A7.84,7.84,0,0,0,37.6,44.2Z" transform="translate(-31.4 -43.3)"/><path class="cls-4" d="M517.4,43.3h94a1.17,1.17,0,0,1-.5,1.6h-.1c-2.2,1.2-4.7.9-7,.9H524.9c-2.4,0-4.8.3-7-.9a1.19,1.19,0,0,1-.7-1.5C517.4,43.4,517.4,43.3,517.4,43.3Z" transform="translate(-31.4 -43.3)"/><path class="cls-5" d="M611.5,44.1v-.8h63.3v1c-1.8,1.8-4.1,1.5-6.3,1.5H617.7C615.6,45.8,613.2,46.1,611.5,44.1Z" transform="translate(-31.4 -43.3)"/><path class="cls-6" d="M170,44.1v-.8h29.7c.3.2.4.4.3.5s-.2.3-.3.3Q185,44.55,170,44.1Z" transform="translate(-31.4 -43.3)"/><path class="cls-7" d="M517.4,43.3v.8a20.89,20.89,0,0,1-17.3,0v-.8Z" transform="translate(-31.4 -43.3)"/><path class="cls-8" d="M199.8,44.1v-.8h12.5c.3.2.4.3.3.5s-.2.3-.3.3A86.91,86.91,0,0,1,199.8,44.1Z" transform="translate(-31.4 -43.3)"/><path class="cls-9" d="M31.9,488.5a2.28,2.28,0,0,0,1-1.9,3,3,0,0,1,.8-2c.2,3.1.3,6.1-1.8,8.7Z" transform="translate(-31.4 -43.3)"/><path class="cls-10" d="M31.9,500c2.4,2.2,2,5,1.8,7.8-.8.2-1.1-.3-1.3-1-.2-1,.3-2.1-.5-3Z" transform="translate(-31.4 -43.3)"/><path class="cls-11" d="M32.9,506.6l.8,1.2v4.7a2.52,2.52,0,0,1-.9-2,2.28,2.28,0,0,0-1-1.9v-1.9a.55.55,0,0,1,.8-.3C32.7,506.4,32.8,506.5,32.9,506.6Z" transform="translate(-31.4 -43.3)"/><path class="cls-12" d="M32.9,506.6l-1,.1v-2.9A3,3,0,0,1,32.9,506.6Z" transform="translate(-31.4 -43.3)"/><path class="cls-13" d="M212.3,44.1v-.8h1.9v.9Z" transform="translate(-31.4 -43.3)"/><path class="cls-14" d="M500.1,44.2h17.3c1.4.1,2.9.2,4.3.2h85.5c1.4,0,2.8-.1,4.3-.2.6,0,1.3.2,1.9.2h61.5a3.28,3.28,0,0,1,2,3c0,1.3.1,2.6.1,3.8V310.6c-.1,2.7-.5,3.2-3,3.2-5.9.1-11.8.1-17.8,0-2.8,0-3.2-.5-3.3-3.5V75.3c0-1.6,0-3.2-.1-4.8a2.09,2.09,0,0,0-2-2.1h-.1c-1.4-.1-2.9-.1-4.3-.1H566.3c-16.2,0-32.3,0-48.5-.1h-2.4a6.86,6.86,0,0,0-6.5,4.2l-1.8,3.9q-65.85,147-131.6,294c-5.5,12.4-11.1,24.7-16.6,37.1-.6,1.3-1.3,2.6-1.9,3.9-1.8-.5-1.8-2.2-2.4-3.4-7.4-16.4-14.8-32.8-22.2-49.4-7.9-17.6-15.9-35.3-23.8-52.9-.5-1.1-.8-3-1.9-3-1.6,0-1.8,1.9-2.2,3.2a149.45,149.45,0,0,1-11.4,27.4c-10.1,18.4-24,33.4-40.7,45.9a236.86,236.86,0,0,1-24.3,15.4c-1.8,1-3.6,2-5.4,3.1-2.6,1.7-2.8,2.2-1.9,5.1.4,1.4.9,2.7,1.4,4.1a164.82,164.82,0,0,1,9.1,36.6,202,202,0,0,1,1.6,31.1c-.7,39.3-14.2,74-37.9,105a67.81,67.81,0,0,1-6.6,7.6,15.08,15.08,0,0,0-4.2,10.9c.1,4,.1,8,.1,12v54.2a43.82,43.82,0,0,1-.4,5.2,2.29,2.29,0,0,1-2.3,2.1c-1.3.1-2.6.2-3.8.2H41.4c-1.3,0-2.6,0-3.8-.1a2,2,0,0,1-1.8-2c-.1-1.1-.1-2.2-.1-3.3V571c0-1.1,0-2.2.1-3.4a.84.84,0,0,1,.4-.7c.5-.4.9,0,1.2.4.9,1.2,1.7,2.3,2.5,3.5,5.4,8.5,10.7,17,16.3,25.5a20.58,20.58,0,0,1,3.4,11.8v33.6c0,1.4,0,2.9.1,4.3a1.88,1.88,0,0,0,1.9,1.8c1.1.1,2.2.1,3.4.1h89.7c5.3,0,5.4-.1,5.4-5.3.1-7.7,0-15.3,0-23v-1.9c-.2-2.6-.3-2.7-3.3-2.3-1,.2-1.4-.3-1.3-1.3l17-18.2a30.39,30.39,0,0,0,2.8-3.3c1.2-1.7.8-3.1-1.1-3.8a34.71,34.71,0,0,0-4.6-1.3c-17.3-4.5-34.7-9-52-13.4-4.6-1.2-9.3-2.5-13.8-3.9a16.74,16.74,0,0,0-9.4-.6,6.69,6.69,0,0,1-7.6-2.8c-1.8-2.7-1.4-5.8,1-8.3a6.94,6.94,0,0,1,8.4-1c.1.1.3.2.4.3,3.5,3.8,8.2,4.7,12.9,5.8,16.2,3.8,32.2,8.4,48.2,12.8,6.9,1.9,13.9,3.6,20.8,5.7,3,.9,4.8.2,6.4-2.5,2-3.3,4.1-6.5,6-9.8,1.2-2.1.7-3.3-1.5-4s-4.6-1.3-6.9-1.9L99.1,542c-3.7-1-7.4-1.8-11.3-.7a6.45,6.45,0,0,1-4.7-.6,6.35,6.35,0,0,1-3.4-8.4,5.94,5.94,0,0,1,.4-.8,8.85,8.85,0,0,1,2.8-3.3,4.11,4.11,0,0,1,4.5-.4c.4.2.8.5,1.2.7a51.9,51.9,0,0,0,18.4,7.9c28,6.7,55.6,14.8,83.4,21.8,1.2.3,2.5.5,3.8.7a2.67,2.67,0,0,0,3.1-1.7c1.8-4.4,3.7-8.8,5.4-13.3a1.68,1.68,0,0,0-.8-2.2c-.1,0-.2-.1-.3-.1l-3.6-1.2-45.3-12.3c-13.4-3.6-26.9-7.1-40.3-10.8-2.9-.8-5.6-1.2-8.4-.2a7,7,0,0,1-4.3.1,7.6,7.6,0,0,1-5-6.5,7.5,7.5,0,0,1,5.2-6.8c2.4-.6,4.9-.5,6.6,1.7a12.66,12.66,0,0,0,7.3,4.2c9.3,2.3,18.6,4.7,27.9,6.9,13.2,3.1,26.3,6.9,39.4,10.5,6.3,1.7,12.7,3.3,19,5a10.62,10.62,0,0,0,1.9.4c3.4.5,4.4,0,5.2-3.3.9-3.5,1.7-7.2,2.3-10.8.4-2.3-.2-3.3-2.4-4s-4.3-1.3-6.5-1.8c-19-4.3-37.8-9.7-56.5-15-4.7-1.3-9.3-2.2-14.1-1.1a5.78,5.78,0,0,1-6.5-3,7,7,0,0,1-.1-7.7,6.25,6.25,0,0,1,6.4-3.3,5.43,5.43,0,0,1,3.4,1.6c2.8,2.9,6.3,4.2,10.1,5.2q31.5,8.25,63,16.7c4.8,1.3,5,1.1,5.2-4,.1-3.4.2-6.7.2-10.1s-.5-4.2-3.8-5.2c-6-1.8-12-3.4-18-5-9.7-2.6-19.4-5.2-29.2-7.8-3.1-.8-6.2-1.4-9.4-.3a5.81,5.81,0,0,1-7.2-2.4,6.78,6.78,0,0,1-.4-7.7c2-3.7,6.7-4.9,9.8-2.1,3.7,3.4,8.1,4.9,12.8,6.1q19.95,5.1,39.9,10.5c4,1.1,5.5.5,4.8-3.9-.7-3.9-1.4-7.9-1.8-11.9-.3-2.7-1.9-3.9-4.2-4.5s-5-1.3-7.4-1.9-4.7-1.1-7-1.8a17,17,0,0,0-7.1-.6,23.38,23.38,0,0,1-5.3.1,6.51,6.51,0,0,1-5.7-6.6,7.27,7.27,0,0,1,6.1-7,4.55,4.55,0,0,1,4,1.1c5.9,5.7,13.8,6.3,21.1,8.3a1.7,1.7,0,0,0,2-1.3v-.7a7.37,7.37,0,0,0-.4-1.4,143.38,143.38,0,0,0-10.9-28.1c-2.6-5-2.9-5.1-8.1-2.7-9,4.2-17.9,8.4-26.9,12.6A205.5,205.5,0,0,0,118.8,452a193,193,0,0,0-46.3,52.7c-4.5,7.5-9.1,15.1-13.1,22.9a8.47,8.47,0,0,1-1.4,1.9c-.1.1-.7-.1-.8-.2a11.08,11.08,0,0,1-.2-1.9A82.68,82.68,0,0,1,60.3,509c8.9-34,27-62.2,53.4-85.2a198,198,0,0,1,40.5-27.2c17.9-9.1,35.9-18.3,53.8-27.5a233.16,233.16,0,0,0,36.2-23.4c19.9-15.6,33.1-35.8,41.3-59.4a134.51,134.51,0,0,0,7.1-46.7,149.09,149.09,0,0,0-4.5-33.2c-.7-2.9-1.5-5.9-2.1-8.8a1.14,1.14,0,0,1,.3-.8.75.75,0,0,1,.8.1,60,60,0,0,1,7.1,10.2,115.07,115.07,0,0,1,9.9,23.8c3.8,13.6,9.3,26.5,15.1,39.3q17.4,38.4,34.8,76.9c.4.9.8,1.7,1.2,2.6a1.7,1.7,0,0,0,2.4.7,2,2,0,0,0,.8-.8,20.18,20.18,0,0,0,1.4-3c20.1-43.2,38.8-87,58.3-130.4Q444.5,157.4,471,98.6c6.5-14.4,13.4-28.7,19.4-43.3.4-1,.9-2.1,1.3-3.1A11.07,11.07,0,0,1,500.1,44.2Z" transform="translate(-31.4 -43.3)"/><path class="cls-1" d="M2469.7,378.6c-.2,1-1.1,1.1-1.7,1.4-13,6-24,14.6-33.7,24.9a211.64,211.64,0,0,0-17.6,21.5q-20.7,29.1-41.3,58.3c-26.2,37.1-52.6,74-80.3,109.9a215.73,215.73,0,0,1-15.7,18.7c-18.1,18.6-39.9,31.3-64.6,39a205,205,0,0,1-40.4,8,253.09,253.09,0,0,1-32.6.9c-34.2-1.4-65.7-11.1-94.2-30.1a208.17,208.17,0,0,1-58.6-59.3,162.06,162.06,0,0,1-25.1-65.2,176.87,176.87,0,0,1-1.4-43,211,211,0,0,1,15.1-63.6c13.7-33,35.8-59.1,66-78.3a216.4,216.4,0,0,1,78.5-30.7,178.94,178.94,0,0,1,50.6-1.9c43.7,4.7,81.1,22.8,112.8,53a216.27,216.27,0,0,1,32.1,39.3c10,15.6,20.2,31.1,30.3,46.6l1.6,2.4a2.25,2.25,0,0,1,0,2.7c-5.9,8.5-11.8,17.1-17.7,25.6a.6.6,0,0,1-.4.1c-1.1-.2-1.4-1.2-1.9-2-15.6-22.6-31.6-45-46.3-68.3a151.93,151.93,0,0,0-41.2-43.7,140.07,140.07,0,0,0-53.5-22.6,177.83,177.83,0,0,0-52-2.6c-38.1,3.4-71.4,17.8-98.8,44.8-22.7,22.4-37,49.4-43.4,80.6a161.52,161.52,0,0,0-2.7,43.9c2.3,30.1,11.6,57.8,30,82.1,13.1,17.3,29.7,30.8,48.8,41.1a178.66,178.66,0,0,0,55.8,19.7,149.59,149.59,0,0,0,40.1,1.6c43.8-4.2,79.3-23.9,107-57.8,13.2-16.1,25.3-33,37.1-50.1,19.2-27.9,38.7-55.6,57.3-83.9,3.8-5.7,7.7-11.4,11.7-17a122.57,122.57,0,0,1,24-25.3,97.77,97.77,0,0,1,50.8-20.6,128.1,128.1,0,0,1,13.9-.7C2468.6,378.2,2469.3,378,2469.7,378.6Z" transform="translate(-31.4 -43.3)"/><path class="cls-14" d="M520.4,473.6V333.5c0-17.6-.1-35.2-.2-52.8a12.58,12.58,0,0,0-.4-4.3c-.7-1.8-1.8-3.1-3.8-3.2a3.89,3.89,0,0,0-4,2.2c-.8,1.5-1.6,3.1-2.3,4.8-10.4,24.6-20.7,49.2-31.1,73.7q-24.45,57.6-49,115.1l-21.3,49.8-.2.4c-2.2,5.1-2.8,5.5-8.2,5.5-19.3-.1-38.7-.4-58-.4-12.1,0-24.3.2-36.5.3H303c-3.5.2-5.5-1.3-6.8-4.7-9.4-22.4-18.9-44.7-28.4-67.1-.7-1.6-2.1-3.3-1.5-4.9s3.1-1.2,4.7-1.6a35.77,35.77,0,0,0,14.2-6.7c1.7-1.3,2.3-1.1,3.2.9.2.4.4.9.6,1.3l21.9,51.6c2.9,6.8,3.5,7.2,11.1,7.2h62.8a7.44,7.44,0,0,0,6.8-4.5c.5-1.2,1.1-2.3,1.6-3.5Q440,382.35,486.9,272.1a61.26,61.26,0,0,1,3.5-7.3A28.55,28.55,0,0,1,529.3,254c.9.5,1.8,1.1,2.7,1.7,6,4.3,9.3,10.4,11.2,17.4a33.76,33.76,0,0,1,1,9.5c-.1,8.3-.1,16.6-.1,24.9V641c0,1.6,0,3.2.1,4.8.1,1.4.7,1.9,2.1,2.1a19.22,19.22,0,0,0,2.4,0H649.4c2.8-.1,3.3-.5,3.3-3.4.1-2.4,0-4.8.1-7.2s.7-3,2.8-3c6.2-.1,12.5,0,18.7,0,1.6,0,2.3.8,2.4,2.4v2.4c0,9.3,0,18.5-.1,27.8a19.27,19.27,0,0,1-.1,2.4c-.2,1.8-1,2.6-2.7,2.7a28.05,28.05,0,0,1-2.9,0H526.8c-6.8,0-6.5.5-6.5-6.5V473.6Z" transform="translate(-31.4 -43.3)"/><path class="cls-14" d="M1908.3,476.7V585.6a66.57,66.57,0,0,1-.2,7.7,13.61,13.61,0,0,1-14.8,12.5.9.9,0,0,1-.5-.1,13.1,13.1,0,0,1-7.9-4.2c-2-2.1-3.9-4.3-5.7-6.5l-85.5-102.9q-36.75-44.25-73.6-88.5c-1.3-1.6-2.7-3.1-4.1-4.7a.94.94,0,0,0-.9-.1.9.9,0,0,0-.6.6c-.1,1.6-.1,3.2-.1,4.8V589.3c0,1.3,0,2.6-.1,3.8a12.79,12.79,0,0,1-12.5,12.2,13.1,13.1,0,0,1-13.9-10.7,43,43,0,0,1-.4-6.2V362.9a25.56,25.56,0,0,1,.5-6.2,12.56,12.56,0,0,1,9.4-9.9c5.1-1.4,9.5-.3,13.1,3.6,3,3.3,5.8,6.8,8.7,10.2q34.65,41.4,69.2,82.8l75.3,90.2c4.7,5.6,9.4,11.3,14.1,16.9a17.53,17.53,0,0,0,2.4,2.3.74.74,0,0,0,.9-.1.37.37,0,0,0,.1-.3c.1-1.4.2-2.9.2-4.3V363.4a47,47,0,0,1,.2-5.3c.9-6.7,6.5-11.9,13-11.8a13.68,13.68,0,0,1,13.4,12c.2,2.2.3,4.5.3,6.7v64.8c-.1,15.8-.1,31.3,0,46.9Z" transform="translate(-31.4 -43.3)"/><path class="cls-14" d="M1438.5,475.3V363.5c0-1.6,0-3.2.1-4.8a13.43,13.43,0,0,1,12.4-13c1.3-.1,2.6-.1,3.8-.1h151.6a24.3,24.3,0,0,1,7.6.8c6.3,2,10.5,8.1,9.7,14.3a13.53,13.53,0,0,1-13,11.9c-1.4.1-2.9,0-4.3,0H1467.8c-1.6.1-2.2.7-2.4,2.4a24.44,24.44,0,0,0-.1,3.8V455c0,6.1-.1,6,6.2,6h118a50.35,50.35,0,0,1,6.7.5,13.22,13.22,0,0,1,11.2,13.5,12.78,12.78,0,0,1-11.4,12.7,50.2,50.2,0,0,1-6.7.4H1472.2c-1.6,0-3.2,0-4.8.1-1.4.1-1.9.7-2.1,2.2-.1,1.3-.1,2.5-.1,3.8v77.2c0,6.1,0,6.1,6.1,6.1h137.2a50,50,0,0,1,6.7.2,13.38,13.38,0,0,1,11.7,14.9,14.12,14.12,0,0,1-2.2,5.9,12.67,12.67,0,0,1-10,5.8c-1.4.1-2.9.1-4.3.1H1451.6c-7.6-.2-13.4-6.4-13.2-13.1.1-1.8-.1-3.5-.1-5.3C1438.5,549.1,1438.5,512.2,1438.5,475.3Z" transform="translate(-31.4 -43.3)"/><path class="cls-1" d="M650.9,475.5V363.3a27.63,27.63,0,0,1,.7-7.6c1.8-6,6.2-9.7,12.5-10.1,2.1-.1,4.2-.1,6.2-.1H819a38.46,38.46,0,0,1,4.8.1,13.42,13.42,0,0,1-.4,26.8c-1.4.1-2.9,0-4.3,0H684c-1.4,0-2.9,0-4.3.1a1.88,1.88,0,0,0-1.9,1.8v.1c-.1,1.1-.1,2.2-.1,3.4v77.6c0,5.5,0,5.5,5.6,5.5q58.5,0,117-.1a43,43,0,0,1,9.5.7,13.32,13.32,0,0,1,10.1,12c.4,6.1-2.6,11.1-8.1,13.3a15.4,15.4,0,0,1-3.7.9,46.88,46.88,0,0,1-5.3.1H684.4c-1.6,0-3.2.1-4.8.2a1.88,1.88,0,0,0-1.8,1.9c0,1.1-.1,2.2-.1,3.4V572c0,5.5,0,5.5,5.7,5.5H822.5a47,47,0,0,1,5.3.2,13,13,0,0,1,11.3,9.1c1.8,5,.3,9.5-2.9,13.4-2.4,2.9-5.8,3.9-9.4,4.2-1.4.1-2.9,0-4.3,0H667.7a31,31,0,0,1-4.3-.2c-8.3-1.1-11.8-7-12.3-13.1-.1-1.4-.1-2.9-.1-4.3V475.5Z" transform="translate(-31.4 -43.3)"/><path class="cls-14" d="M2155.7,598.9c-53.4.2-104.8-36.4-117.8-93.5-8.3-36.2-.4-69.2,22.3-98.4a121.55,121.55,0,0,1,107.6-46.4c37.5,4.1,66.5,22.1,87.4,53.2a114.12,114.12,0,0,1,18.3,49c8.2,62-30.4,116-85.4,131.6A110.75,110.75,0,0,1,2155.7,598.9Z" transform="translate(-31.4 -43.3)"/><path class="cls-14" d="M1351.6,500.2c1.4-.4,2.4.3,3.4.6a28.44,28.44,0,0,0,19.7-1.1,13.36,13.36,0,0,1,1.8-.7,1.08,1.08,0,0,1,1.4.7v.2a19.42,19.42,0,0,1,.2,2.4v53.2a18,18,0,0,1-5.5,13.3c-20.7,21.6-45.6,35.3-75.2,40.2q-49.35,8.1-92.1-17.8a141.6,141.6,0,0,1-40.4-36.3,127.32,127.32,0,0,1-22.8-53.3,138.12,138.12,0,0,1-2.5-24.8c-.3-20.3,3.7-39.8,13-57.9,14.7-28.6,36.2-50.5,65.5-64.3a136.39,136.39,0,0,1,39-11.3,146.83,146.83,0,0,1,22.9-1.5c25.9.8,49.5,8.8,71,23.2.7.5,1.3,1,1.9,1.4,5.3,3.8,6.3,9,5,14.9s-9.6,11.8-17.7,8.5a30.52,30.52,0,0,1-5-2.8,108,108,0,0,0-43.3-17.2,98.55,98.55,0,0,0-39,1.5,117.71,117.71,0,0,0-45,20.7,99.65,99.65,0,0,0-30.4,37.7,115.11,115.11,0,0,0-11.3,45.3,94.51,94.51,0,0,0,11.9,49.3,119.6,119.6,0,0,0,30.7,37.1,102.55,102.55,0,0,0,49.2,21.2,114.42,114.42,0,0,0,32,.7,101.32,101.32,0,0,0,41.2-14.9,161.29,161.29,0,0,0,15-11.1,13.09,13.09,0,0,0,5.1-11.3c-.2-13.7-.1-27.5-.1-41.2C1351.2,503.2,1350.9,501.6,1351.6,500.2Z" transform="translate(-31.4 -43.3)"/><path class="cls-1" d="M991.8,483.2V376.3c-.1-3.5-.2-3.8-3.9-3.8H924.1c-3.7,0-7.4.1-11-.1a13.22,13.22,0,0,1-12.7-13.8,14,14,0,0,1,1-4.5c2-5.1,5.9-7.8,11.2-8.5a30.88,30.88,0,0,1,4.3-.1h175.6a46.88,46.88,0,0,1,5.3.1c7.3,1.1,12.2,6.9,11.9,13.9a13.18,13.18,0,0,1-12.9,12.8c-1.4.1-2.9,0-4.3,0h-68.1c-5.5,0-5.6-.6-5.6,5.4V579.6c0,4.2,0,8.3-.2,12.5s-2.2,7.2-5.4,9.7c-7.5,5.9-19.7,1.2-21-8a54.41,54.41,0,0,1-.3-5.7Z" transform="translate(-31.4 -43.3)"/><path class="cls-1" d="M2452.4,578.6h-36.6a3.51,3.51,0,0,1-3.2-1.7c-.5-.8-1.1-1.6-1.6-2.4-10.8-16.6-21.7-33.2-32.5-49.7l-1.5-2.4a2.55,2.55,0,0,1,.1-3.1c5.6-8.7,11.3-17.3,17.1-25.7,1.4-.2,1.6.7,2,1.3q27.75,40.5,55.4,81.1A4.46,4.46,0,0,1,2452.4,578.6Z" transform="translate(-31.4 -43.3)"/><path class="cls-1" d="M264.9,440.7a25.46,25.46,0,0,1-25.9-25v-1.2c.1-14.8,11.6-25.9,26.2-26,14.4-.1,25.9,12.3,25.7,26.6C290.8,430,278.5,441.2,264.9,440.7Z" transform="translate(-31.4 -43.3)"/><path class="cls-14" d="M2510.2,388.7a15.65,15.65,0,1,1,.2-31.3c9.1.2,15.4,7,15.3,16.3C2525.6,383.7,2517.2,388.8,2510.2,388.7Z" transform="translate(-31.4 -43.3)"/><path class="cls-14" d="M2482.2,415.8c-8.5.2-14.4-6.9-14.6-14.7a14.6,14.6,0,1,1,29.2.2v.4a14.15,14.15,0,0,1-14.5,14A.1.1,0,0,1,2482.2,415.8Z" transform="translate(-31.4 -43.3)"/><path class="cls-15" d="M256.5,484.9c-7.3,0-12.6-5.1-12.7-12.1s4.7-12.9,13-13c6.4-.1,12,5.8,12,12.5S264,485,256.5,484.9Z" transform="translate(-31.4 -43.3)"/><path class="cls-15" d="M2478.3,365.6a11.44,11.44,0,0,1-11.4-11.3,11.2,11.2,0,0,1,11.3-11.2h0c7,.2,10.9,5.3,11.1,11.5C2489.5,360.4,2484.3,365.5,2478.3,365.6Z" transform="translate(-31.4 -43.3)"/><path class="cls-16" d="M184.7,153.9l-1.2-1.2a10.25,10.25,0,0,1,5.8-3.9.59.59,0,0,1,.3.7c-.1.2-.2.4-.3.4C188.1,151.5,186.8,153.2,184.7,153.9Z" transform="translate(-31.4 -43.3)"/><path class="cls-17" d="M155.4,614l1.3,1.3c-.1.1-.2.3-.3.4-1,.6-1.8,1.7-3.2,1.1-.1-.1-.2-.2-.2-.3A3,3,0,0,1,155.4,614Z" transform="translate(-31.4 -43.3)"/><path class="cls-18" d="M189.3,149.8v-1.1a15.38,15.38,0,0,1,1.2-1.3c.3-.3.8-.5,1.1,0a.83.83,0,0,1-.2.8A16.6,16.6,0,0,1,189.3,149.8Z" transform="translate(-31.4 -43.3)"/><path class="cls-19" d="M2156.9,573.1c-43.7.5-84.2-30-94-73.7-4.2-18.9-2.4-37.3,5-55.4,10.1-24.9,35.1-48.5,66.1-55.7,53.1-12.2,101.6,20.6,112.3,70.1,6.5,30,.2,57.6-19.5,81.4-15,18-34.4,28.7-57.7,32.3A100.32,100.32,0,0,1,2156.9,573.1Z" transform="translate(-31.4 -43.3)"/></svg>